<svg width="96" height="96" viewBox="0 0 96 96" fill="none" xmlns="http://www.w3.org/2000/svg">
<path d="M82 16H14C13.4477 16 13 16.4477 13 17V85C13 85.5523 13.4477 86 14 86H82C82.5523 86 83 85.5523 83 85V17C83 16.4477 82.5523 16 82 16Z" fill="white"/>
<path d="M82 16H14C13.4477 16 13 16.4477 13 17V85C13 85.5523 13.4477 86 14 86H82C82.5523 86 83 85.5523 83 85V17C83 16.4477 82.5523 16 82 16Z" fill="#4598D4" fill-opacity="0.1"/>
<mask id="mask0_112_3439" style="mask-type:alpha" maskUnits="userSpaceOnUse" x="13" y="16" width="70" height="70">
<path d="M82 16H14C13.4477 16 13 16.4477 13 17V85C13 85.5523 13.4477 86 14 86H82C82.5523 86 83 85.5523 83 85V17C83 16.4477 82.5523 16 82 16Z" fill="white"/>
<path d="M82 16H14C13.4477 16 13 16.4477 13 17V85C13 85.5523 13.4477 86 14 86H82C82.5523 86 83 85.5523 83 85V17C83 16.4477 82.5523 16 82 16Z" fill="#4598D4" fill-opacity="0.1"/>
</mask>
<g mask="url(#mask0_112_3439)">
<path d="M82 95C86.9706 95 91 90.9706 91 86C91 81.0294 86.9706 77 82 77C77.0294 77 73 81.0294 73 86C73 90.9706 77.0294 95 82 95Z" fill="white"/>
<path d="M82 95C86.9706 95 91 90.9706 91 86C91 81.0294 86.9706 77 82 77C77.0294 77 73 81.0294 73 86C73 90.9706 77.0294 95 82 95Z" fill="#4598D4" fill-opacity="0.2"/>
<path d="M82 95C86.9706 95 91 90.9706 91 86C91 81.0294 86.9706 77 82 77C77.0294 77 73 81.0294 73 86C73 90.9706 77.0294 95 82 95Z" stroke="white" stroke-linecap="round" stroke-dasharray="2 3"/>
<path d="M82 95C86.9706 95 91 90.9706 91 86C91 81.0294 86.9706 77 82 77C77.0294 77 73 81.0294 73 86C73 90.9706 77.0294 95 82 95Z" stroke="#4598D4" stroke-opacity="0.5" stroke-linecap="round" stroke-dasharray="2 3"/>
</g>
<path d="M82 16H14C13.4477 16 13 16.4477 13 17V31C13 31.5523 13.4477 32 14 32H82C82.5523 32 83 31.5523 83 31V17C83 16.4477 82.5523 16 82 16Z" fill="white"/>
<path d="M82 16H14C13.4477 16 13 16.4477 13 17V31C13 31.5523 13.4477 32 14 32H82C82.5523 32 83 31.5523 83 31V17C83 16.4477 82.5523 16 82 16Z" fill="#4598D4" fill-opacity="0.4"/>
<path d="M60.6667 45.1499C61.7713 45.1499 62.6667 44.2545 62.6667 43.1499C62.6667 42.0453 61.7713 41.1499 60.6667 41.1499C59.5621 41.1499 58.6667 42.0453 58.6667 43.1499C58.6667 44.2545 59.5621 45.1499 60.6667 45.1499Z" fill="white"/>
<path d="M60.6667 45.1499C61.7713 45.1499 62.6667 44.2545 62.6667 43.1499C62.6667 42.0453 61.7713 41.1499 60.6667 41.1499C59.5621 41.1499 58.6667 42.0453 58.6667 43.1499C58.6667 44.2545 59.5621 45.1499 60.6667 45.1499Z" fill="#4598D4" fill-opacity="0.8"/>
<path d="M67 45.1499C68.1046 45.1499 69 44.2545 69 43.1499C69 42.0453 68.1046 41.1499 67 41.1499C65.8954 41.1499 65 42.0453 65 43.1499C65 44.2545 65.8954 45.1499 67 45.1499Z" fill="white"/>
<path d="M67 45.1499C68.1046 45.1499 69 44.2545 69 43.1499C69 42.0453 68.1046 41.1499 67 41.1499C65.8954 41.1499 65 42.0453 65 43.1499C65 44.2545 65.8954 45.1499 67 45.1499Z" fill="#4598D4" fill-opacity="0.8"/>
<path d="M29 51.48C30.1046 51.48 31 50.5845 31 49.48C31 48.3754 30.1046 47.48 29 47.48C27.8954 47.48 27 48.3754 27 49.48C27 50.5845 27.8954 51.48 29 51.48Z" fill="white"/>
<path d="M29 51.48C30.1046 51.48 31 50.5845 31 49.48C31 48.3754 30.1046 47.48 29 47.48C27.8954 47.48 27 48.3754 27 49.48C27 50.5845 27.8954 51.48 29 51.48Z" fill="#4598D4" fill-opacity="0.4"/>
<path d="M35.3333 51.48C36.4379 51.48 37.3333 50.5845 37.3333 49.48C37.3333 48.3754 36.4379 47.48 35.3333 47.48C34.2287 47.48 33.3333 48.3754 33.3333 49.48C33.3333 50.5845 34.2287 51.48 35.3333 51.48Z" fill="white"/>
<path d="M35.3333 51.48C36.4379 51.48 37.3333 50.5845 37.3333 49.48C37.3333 48.3754 36.4379 47.48 35.3333 47.48C34.2287 47.48 33.3333 48.3754 33.3333 49.48C33.3333 50.5845 34.2287 51.48 35.3333 51.48Z" fill="#4598D4" fill-opacity="0.4"/>
<path d="M41.6667 51.48C42.7713 51.48 43.6667 50.5845 43.6667 49.48C43.6667 48.3754 42.7713 47.48 41.6667 47.48C40.5621 47.48 39.6667 48.3754 39.6667 49.48C39.6667 50.5845 40.5621 51.48 41.6667 51.48Z" fill="white"/>
<path d="M41.6667 51.48C42.7713 51.48 43.6667 50.5845 43.6667 49.48C43.6667 48.3754 42.7713 47.48 41.6667 47.48C40.5621 47.48 39.6667 48.3754 39.6667 49.48C39.6667 50.5845 40.5621 51.48 41.6667 51.48Z" fill="#4598D4" fill-opacity="0.4"/>
<path d="M48 51.48C49.1046 51.48 50 50.5845 50 49.48C50 48.3754 49.1046 47.48 48 47.48C46.8954 47.48 46 48.3754 46 49.48C46 50.5845 46.8954 51.48 48 51.48Z" fill="white"/>
<path d="M48 51.48C49.1046 51.48 50 50.5845 50 49.48C50 48.3754 49.1046 47.48 48 47.48C46.8954 47.48 46 48.3754 46 49.48C46 50.5845 46.8954 51.48 48 51.48Z" fill="#4598D4" fill-opacity="0.4"/>
<path d="M54.3333 51.48C55.4379 51.48 56.3333 50.5845 56.3333 49.48C56.3333 48.3754 55.4379 47.48 54.3333 47.48C53.2287 47.48 52.3333 48.3754 52.3333 49.48C52.3333 50.5845 53.2287 51.48 54.3333 51.48Z" fill="white"/>
<path d="M54.3333 51.48C55.4379 51.48 56.3333 50.5845 56.3333 49.48C56.3333 48.3754 55.4379 47.48 54.3333 47.48C53.2287 47.48 52.3333 48.3754 52.3333 49.48C52.3333 50.5845 53.2287 51.48 54.3333 51.48Z" fill="#4598D4" fill-opacity="0.4"/>
<path d="M60.6667 51.48C61.7713 51.48 62.6667 50.5845 62.6667 49.48C62.6667 48.3754 61.7713 47.48 60.6667 47.48C59.5621 47.48 58.6667 48.3754 58.6667 49.48C58.6667 50.5845 59.5621 51.48 60.6667 51.48Z" fill="white"/>
<path d="M60.6667 51.48C61.7713 51.48 62.6667 50.5845 62.6667 49.48C62.6667 48.3754 61.7713 47.48 60.6667 47.48C59.5621 47.48 58.6667 48.3754 58.6667 49.48C58.6667 50.5845 59.5621 51.48 60.6667 51.48Z" fill="#4598D4" fill-opacity="0.8"/>
<path d="M67 51.48C68.1046 51.48 69 50.5845 69 49.48C69 48.3754 68.1046 47.48 67 47.48C65.8954 47.48 65 48.3754 65 49.48C65 50.5845 65.8954 51.48 67 51.48Z" fill="white"/>
<path d="M67 51.48C68.1046 51.48 69 50.5845 69 49.48C69 48.3754 68.1046 47.48 67 47.48C65.8954 47.48 65 48.3754 65 49.48C65 50.5845 65.8954 51.48 67 51.48Z" fill="#4598D4" fill-opacity="0.8"/>
<path d="M29 57.8098C30.1046 57.8098 31 56.9144 31 55.8098C31 54.7052 30.1046 53.8098 29 53.8098C27.8954 53.8098 27 54.7052 27 55.8098C27 56.9144 27.8954 57.8098 29 57.8098Z" fill="white"/>
<path d="M29 57.8098C30.1046 57.8098 31 56.9144 31 55.8098C31 54.7052 30.1046 53.8098 29 53.8098C27.8954 53.8098 27 54.7052 27 55.8098C27 56.9144 27.8954 57.8098 29 57.8098Z" fill="#4598D4" fill-opacity="0.4"/>
<path d="M35.3333 57.8098C36.4379 57.8098 37.3333 56.9144 37.3333 55.8098C37.3333 54.7052 36.4379 53.8098 35.3333 53.8098C34.2287 53.8098 33.3333 54.7052 33.3333 55.8098C33.3333 56.9144 34.2287 57.8098 35.3333 57.8098Z" fill="white"/>
<path d="M35.3333 57.8098C36.4379 57.8098 37.3333 56.9144 37.3333 55.8098C37.3333 54.7052 36.4379 53.8098 35.3333 53.8098C34.2287 53.8098 33.3333 54.7052 33.3333 55.8098C33.3333 56.9144 34.2287 57.8098 35.3333 57.8098Z" fill="#4598D4" fill-opacity="0.4"/>
<path d="M41.6667 57.8098C42.7713 57.8098 43.6667 56.9144 43.6667 55.8098C43.6667 54.7052 42.7713 53.8098 41.6667 53.8098C40.5621 53.8098 39.6667 54.7052 39.6667 55.8098C39.6667 56.9144 40.5621 57.8098 41.6667 57.8098Z" fill="white"/>
<path d="M41.6667 57.8098C42.7713 57.8098 43.6667 56.9144 43.6667 55.8098C43.6667 54.7052 42.7713 53.8098 41.6667 53.8098C40.5621 53.8098 39.6667 54.7052 39.6667 55.8098C39.6667 56.9144 40.5621 57.8098 41.6667 57.8098Z" fill="#4598D4" fill-opacity="0.4"/>
<path d="M48 57.8098C49.1046 57.8098 50 56.9144 50 55.8098C50 54.7052 49.1046 53.8098 48 53.8098C46.8954 53.8098 46 54.7052 46 55.8098C46 56.9144 46.8954 57.8098 48 57.8098Z" fill="white"/>
<path d="M48 57.8098C49.1046 57.8098 50 56.9144 50 55.8098C50 54.7052 49.1046 53.8098 48 53.8098C46.8954 53.8098 46 54.7052 46 55.8098C46 56.9144 46.8954 57.8098 48 57.8098Z" fill="#4598D4" fill-opacity="0.4"/>
<path d="M54.3333 57.8098C55.4379 57.8098 56.3333 56.9144 56.3333 55.8098C56.3333 54.7052 55.4379 53.8098 54.3333 53.8098C53.2287 53.8098 52.3333 54.7052 52.3333 55.8098C52.3333 56.9144 53.2287 57.8098 54.3333 57.8098Z" fill="white"/>
<path d="M54.3333 57.8098C55.4379 57.8098 56.3333 56.9144 56.3333 55.8098C56.3333 54.7052 55.4379 53.8098 54.3333 53.8098C53.2287 53.8098 52.3333 54.7052 52.3333 55.8098C52.3333 56.9144 53.2287 57.8098 54.3333 57.8098Z" fill="#4598D4" fill-opacity="0.4"/>
<path d="M60.6667 57.8098C61.7713 57.8098 62.6667 56.9144 62.6667 55.8098C62.6667 54.7052 61.7713 53.8098 60.6667 53.8098C59.5621 53.8098 58.6667 54.7052 58.6667 55.8098C58.6667 56.9144 59.5621 57.8098 60.6667 57.8098Z" fill="white"/>
<path d="M60.6667 57.8098C61.7713 57.8098 62.6667 56.9144 62.6667 55.8098C62.6667 54.7052 61.7713 53.8098 60.6667 53.8098C59.5621 53.8098 58.6667 54.7052 58.6667 55.8098C58.6667 56.9144 59.5621 57.8098 60.6667 57.8098Z" fill="#4598D4" fill-opacity="0.8"/>
<path d="M67 57.8098C68.1046 57.8098 69 56.9144 69 55.8098C69 54.7052 68.1046 53.8098 67 53.8098C65.8954 53.8098 65 54.7052 65 55.8098C65 56.9144 65.8954 57.8098 67 57.8098Z" fill="white"/>
<path d="M67 57.8098C68.1046 57.8098 69 56.9144 69 55.8098C69 54.7052 68.1046 53.8098 67 53.8098C65.8954 53.8098 65 54.7052 65 55.8098C65 56.9144 65.8954 57.8098 67 57.8098Z" fill="#4598D4" fill-opacity="0.8"/>
<path d="M29 64.1399C30.1046 64.1399 31 63.2445 31 62.1399C31 61.0353 30.1046 60.1399 29 60.1399C27.8954 60.1399 27 61.0353 27 62.1399C27 63.2445 27.8954 64.1399 29 64.1399Z" fill="white"/>
<path d="M29 64.1399C30.1046 64.1399 31 63.2445 31 62.1399C31 61.0353 30.1046 60.1399 29 60.1399C27.8954 60.1399 27 61.0353 27 62.1399C27 63.2445 27.8954 64.1399 29 64.1399Z" fill="#4598D4" fill-opacity="0.4"/>
<path d="M35.3333 64.1399C36.4379 64.1399 37.3333 63.2445 37.3333 62.1399C37.3333 61.0353 36.4379 60.1399 35.3333 60.1399C34.2287 60.1399 33.3333 61.0353 33.3333 62.1399C33.3333 63.2445 34.2287 64.1399 35.3333 64.1399Z" fill="white"/>
<path d="M35.3333 64.1399C36.4379 64.1399 37.3333 63.2445 37.3333 62.1399C37.3333 61.0353 36.4379 60.1399 35.3333 60.1399C34.2287 60.1399 33.3333 61.0353 33.3333 62.1399C33.3333 63.2445 34.2287 64.1399 35.3333 64.1399Z" fill="#4598D4" fill-opacity="0.4"/>
<path d="M41.6667 64.1399C42.7713 64.1399 43.6667 63.2445 43.6667 62.1399C43.6667 61.0353 42.7713 60.1399 41.6667 60.1399C40.5621 60.1399 39.6667 61.0353 39.6667 62.1399C39.6667 63.2445 40.5621 64.1399 41.6667 64.1399Z" fill="white"/>
<path d="M41.6667 64.1399C42.7713 64.1399 43.6667 63.2445 43.6667 62.1399C43.6667 61.0353 42.7713 60.1399 41.6667 60.1399C40.5621 60.1399 39.6667 61.0353 39.6667 62.1399C39.6667 63.2445 40.5621 64.1399 41.6667 64.1399Z" fill="#4598D4" fill-opacity="0.4"/>
<path d="M48 64.1399C49.1046 64.1399 50 63.2445 50 62.1399C50 61.0353 49.1046 60.1399 48 60.1399C46.8954 60.1399 46 61.0353 46 62.1399C46 63.2445 46.8954 64.1399 48 64.1399Z" fill="white"/>
<path d="M48 64.1399C49.1046 64.1399 50 63.2445 50 62.1399C50 61.0353 49.1046 60.1399 48 60.1399C46.8954 60.1399 46 61.0353 46 62.1399C46 63.2445 46.8954 64.1399 48 64.1399Z" fill="#4598D4" fill-opacity="0.8"/>
<path d="M54.3333 64.1399C55.4379 64.1399 56.3333 63.2445 56.3333 62.1399C56.3333 61.0353 55.4379 60.1399 54.3333 60.1399C53.2287 60.1399 52.3333 61.0353 52.3333 62.1399C52.3333 63.2445 53.2287 64.1399 54.3333 64.1399Z" fill="white"/>
<path d="M54.3333 64.1399C55.4379 64.1399 56.3333 63.2445 56.3333 62.1399C56.3333 61.0353 55.4379 60.1399 54.3333 60.1399C53.2287 60.1399 52.3333 61.0353 52.3333 62.1399C52.3333 63.2445 53.2287 64.1399 54.3333 64.1399Z" fill="#4598D4" fill-opacity="0.4"/>
<path d="M60.6667 64.1399C61.7713 64.1399 62.6667 63.2445 62.6667 62.1399C62.6667 61.0353 61.7713 60.1399 60.6667 60.1399C59.5621 60.1399 58.6667 61.0353 58.6667 62.1399C58.6667 63.2445 59.5621 64.1399 60.6667 64.1399Z" fill="white"/>
<path d="M60.6667 64.1399C61.7713 64.1399 62.6667 63.2445 62.6667 62.1399C62.6667 61.0353 61.7713 60.1399 60.6667 60.1399C59.5621 60.1399 58.6667 61.0353 58.6667 62.1399C58.6667 63.2445 59.5621 64.1399 60.6667 64.1399Z" fill="#4598D4" fill-opacity="0.8"/>
<path d="M67 64.1399C68.1046 64.1399 69 63.2445 69 62.1399C69 61.0353 68.1046 60.1399 67 60.1399C65.8954 60.1399 65 61.0353 65 62.1399C65 63.2445 65.8954 64.1399 67 64.1399Z" fill="white"/>
<path d="M67 64.1399C68.1046 64.1399 69 63.2445 69 62.1399C69 61.0353 68.1046 60.1399 67 60.1399C65.8954 60.1399 65 61.0353 65 62.1399C65 63.2445 65.8954 64.1399 67 64.1399Z" fill="#4598D4" fill-opacity="0.8"/>
<path d="M29 70.47C30.1046 70.47 31 69.5745 31 68.47C31 67.3654 30.1046 66.47 29 66.47C27.8954 66.47 27 67.3654 27 68.47C27 69.5745 27.8954 70.47 29 70.47Z" fill="white"/>
<path d="M29 70.47C30.1046 70.47 31 69.5745 31 68.47C31 67.3654 30.1046 66.47 29 66.47C27.8954 66.47 27 67.3654 27 68.47C27 69.5745 27.8954 70.47 29 70.47Z" fill="#4598D4" fill-opacity="0.4"/>
<path d="M35.3333 70.47C36.4379 70.47 37.3333 69.5745 37.3333 68.47C37.3333 67.3654 36.4379 66.47 35.3333 66.47C34.2287 66.47 33.3333 67.3654 33.3333 68.47C33.3333 69.5745 34.2287 70.47 35.3333 70.47Z" fill="white"/>
<path d="M35.3333 70.47C36.4379 70.47 37.3333 69.5745 37.3333 68.47C37.3333 67.3654 36.4379 66.47 35.3333 66.47C34.2287 66.47 33.3333 67.3654 33.3333 68.47C33.3333 69.5745 34.2287 70.47 35.3333 70.47Z" fill="#4598D4" fill-opacity="0.4"/>
<path d="M41.6667 70.47C42.7713 70.47 43.6667 69.5745 43.6667 68.47C43.6667 67.3654 42.7713 66.47 41.6667 66.47C40.5621 66.47 39.6667 67.3654 39.6667 68.47C39.6667 69.5745 40.5621 70.47 41.6667 70.47Z" fill="white"/>
<path d="M41.6667 70.47C42.7713 70.47 43.6667 69.5745 43.6667 68.47C43.6667 67.3654 42.7713 66.47 41.6667 66.47C40.5621 66.47 39.6667 67.3654 39.6667 68.47C39.6667 69.5745 40.5621 70.47 41.6667 70.47Z" fill="#4598D4" fill-opacity="0.4"/>
<path d="M48 70.47C49.1046 70.47 50 69.5745 50 68.47C50 67.3654 49.1046 66.47 48 66.47C46.8954 66.47 46 67.3654 46 68.47C46 69.5745 46.8954 70.47 48 70.47Z" fill="white"/>
<path d="M48 70.47C49.1046 70.47 50 69.5745 50 68.47C50 67.3654 49.1046 66.47 48 66.47C46.8954 66.47 46 67.3654 46 68.47C46 69.5745 46.8954 70.47 48 70.47Z" fill="#4598D4" fill-opacity="0.4"/>
<path d="M54.3333 70.47C55.4379 70.47 56.3333 69.5745 56.3333 68.47C56.3333 67.3654 55.4379 66.47 54.3333 66.47C53.2287 66.47 52.3333 67.3654 52.3333 68.47C52.3333 69.5745 53.2287 70.47 54.3333 70.47Z" fill="white"/>
<path d="M54.3333 70.47C55.4379 70.47 56.3333 69.5745 56.3333 68.47C56.3333 67.3654 55.4379 66.47 54.3333 66.47C53.2287 66.47 52.3333 67.3654 52.3333 68.47C52.3333 69.5745 53.2287 70.47 54.3333 70.47Z" fill="#4598D4" fill-opacity="0.4"/>
<path d="M60.6667 70.47C61.7713 70.47 62.6667 69.5745 62.6667 68.47C62.6667 67.3654 61.7713 66.47 60.6667 66.47C59.5621 66.47 58.6667 67.3654 58.6667 68.47C58.6667 69.5745 59.5621 70.47 60.6667 70.47Z" fill="white"/>
<path d="M60.6667 70.47C61.7713 70.47 62.6667 69.5745 62.6667 68.47C62.6667 67.3654 61.7713 66.47 60.6667 66.47C59.5621 66.47 58.6667 67.3654 58.6667 68.47C58.6667 69.5745 59.5621 70.47 60.6667 70.47Z" fill="#4598D4" fill-opacity="0.8"/>
<path d="M67 70.47C68.1046 70.47 69 69.5745 69 68.47C69 67.3654 68.1046 66.47 67 66.47C65.8954 66.47 65 67.3654 65 68.47C65 69.5745 65.8954 70.47 67 70.47Z" fill="white"/>
<path d="M67 70.47C68.1046 70.47 69 69.5745 69 68.47C69 67.3654 68.1046 66.47 67 66.47C65.8954 66.47 65 67.3654 65 68.47C65 69.5745 65.8954 70.47 67 70.47Z" fill="#4598D4" fill-opacity="0.8"/>
<path d="M29 76.7998C30.1046 76.7998 31 75.9044 31 74.7998C31 73.6952 30.1046 72.7998 29 72.7998C27.8954 72.7998 27 73.6952 27 74.7998C27 75.9044 27.8954 76.7998 29 76.7998Z" fill="white"/>
<path d="M29 76.7998C30.1046 76.7998 31 75.9044 31 74.7998C31 73.6952 30.1046 72.7998 29 72.7998C27.8954 72.7998 27 73.6952 27 74.7998C27 75.9044 27.8954 76.7998 29 76.7998Z" fill="#4598D4" fill-opacity="0.4"/>
<path d="M32 10H28C27.4477 10 27 10.4477 27 11V21C27 21.5523 27.4477 22 28 22H32C32.5523 22 33 21.5523 33 21V11C33 10.4477 32.5523 10 32 10Z" fill="white"/>
<path d="M32 10H28C27.4477 10 27 10.4477 27 11V21C27 21.5523 27.4477 22 28 22H32C32.5523 22 33 21.5523 33 21V11C33 10.4477 32.5523 10 32 10Z" fill="#4598D4" fill-opacity="0.5"/>
<path d="M27 16H33V21C33 21.5523 32.5523 22 32 22H28C27.4477 22 27 21.5523 27 21V16Z" fill="white"/>
<path d="M27 16H33V21C33 21.5523 32.5523 22 32 22H28C27.4477 22 27 21.5523 27 21V16Z" fill="#4598D4" fill-opacity="0.2"/>
<path d="M68 10H64C63.4477 10 63 10.4477 63 11V21C63 21.5523 63.4477 22 64 22H68C68.5523 22 69 21.5523 69 21V11C69 10.4477 68.5523 10 68 10Z" fill="white"/>
<path d="M68 10H64C63.4477 10 63 10.4477 63 11V21C63 21.5523 63.4477 22 64 22H68C68.5523 22 69 21.5523 69 21V11C69 10.4477 68.5523 10 68 10Z" fill="#4598D4" fill-opacity="0.5"/>
<path d="M63 16H69V21C69 21.5523 68.5523 22 68 22H64C63.4477 22 63 21.5523 63 21V16Z" fill="white"/>
<path d="M63 16H69V21C69 21.5523 68.5523 22 68 22H64C63.4477 22 63 21.5523 63 21V16Z" fill="#4598D4" fill-opacity="0.2"/>
</svg>
