<svg width="96" height="96" viewBox="0 0 96 96" fill="none" xmlns="http://www.w3.org/2000/svg">
<path d="M28 82H68V85C68 85.5523 67.5523 86 67 86H29C28.4477 86 28 85.5523 28 85V82Z" fill="white"/>
<path d="M28 82H68V85C68 85.5523 67.5523 86 67 86H29C28.4477 86 28 85.5523 28 85V82Z" fill="#4598D4" fill-opacity="0.8"/>
<path fill-rule="evenodd" clip-rule="evenodd" d="M84 45.5C84 65.3823 67.8823 81.5 48 81.5C28.1177 81.5 12 65.3823 12 45.5C12 25.6177 28.1177 9.5 48 9.5C67.8823 9.5 84 25.6177 84 45.5ZM30 45.5C30 35.5589 38.0589 27.5 48 27.5C57.9411 27.5 66 35.5589 66 45.5C66 47.2349 65.7545 48.9126 65.2965 50.5H30.7035C30.2455 48.9126 30 47.2349 30 45.5Z" fill="white"/>
<path fill-rule="evenodd" clip-rule="evenodd" d="M84 45.5C84 65.3823 67.8823 81.5 48 81.5C28.1177 81.5 12 65.3823 12 45.5C12 25.6177 28.1177 9.5 48 9.5C67.8823 9.5 84 25.6177 84 45.5ZM30 45.5C30 35.5589 38.0589 27.5 48 27.5C57.9411 27.5 66 35.5589 66 45.5C66 47.2349 65.7545 48.9126 65.2965 50.5H30.7035C30.2455 48.9126 30 47.2349 30 45.5Z" fill="#4598D4" fill-opacity="0.2"/>
<path d="M25 74.5H71L65.2965 50.5H30.7035L25 74.5Z" fill="white"/>
<path d="M25 74.5H71L65.2965 50.5H30.7035L25 74.5Z" fill="#4598D4" fill-opacity="0.4"/>
<path d="M63 54.5L66 69.5" stroke="white" stroke-linecap="round"/>
<path d="M63 54.5L66 69.5" stroke="#4598D4" stroke-opacity="0.1" stroke-linecap="round"/>
<path d="M18 44.5C19.1046 44.5 20 43.6046 20 42.5C20 41.3954 19.1046 40.5 18 40.5C16.8954 40.5 16 41.3954 16 42.5C16 43.6046 16.8954 44.5 18 44.5Z" fill="white"/>
<path d="M18 44.5C19.1046 44.5 20 43.6046 20 42.5C20 41.3954 19.1046 40.5 18 40.5C16.8954 40.5 16 41.3954 16 42.5C16 43.6046 16.8954 44.5 18 44.5Z" fill="#4598D4" fill-opacity="0.7"/>
<path d="M25 44.5C26.1046 44.5 27 43.6046 27 42.5C27 41.3954 26.1046 40.5 25 40.5C23.8954 40.5 23 41.3954 23 42.5C23 43.6046 23.8954 44.5 25 44.5Z" fill="white"/>
<path d="M25 44.5C26.1046 44.5 27 43.6046 27 42.5C27 41.3954 26.1046 40.5 25 40.5C23.8954 40.5 23 41.3954 23 42.5C23 43.6046 23.8954 44.5 25 44.5Z" fill="#4598D4" fill-opacity="0.5"/>
<path d="M25 51.5C26.1046 51.5 27 50.6046 27 49.5C27 48.3954 26.1046 47.5 25 47.5C23.8954 47.5 23 48.3954 23 49.5C23 50.6046 23.8954 51.5 25 51.5Z" fill="white"/>
<path d="M25 51.5C26.1046 51.5 27 50.6046 27 49.5C27 48.3954 26.1046 47.5 25 47.5C23.8954 47.5 23 48.3954 23 49.5C23 50.6046 23.8954 51.5 25 51.5Z" fill="#4598D4" fill-opacity="0.4"/>
<path d="M18 51.5C19.1046 51.5 20 50.6046 20 49.5C20 48.3954 19.1046 47.5 18 47.5C16.8954 47.5 16 48.3954 16 49.5C16 50.6046 16.8954 51.5 18 51.5Z" fill="white"/>
<path d="M18 51.5C19.1046 51.5 20 50.6046 20 49.5C20 48.3954 19.1046 47.5 18 47.5C16.8954 47.5 16 48.3954 16 49.5C16 50.6046 16.8954 51.5 18 51.5Z" fill="#4598D4" fill-opacity="0.5"/>
<path d="M40 15.5C40 14.9477 40.4477 14.5 41 14.5H55C55.5523 14.5 56 14.9477 56 15.5V18V23.5C56 24.0523 55.5523 24.5 55 24.5H41C40.4477 24.5 40 24.0523 40 23.5V18V15.5Z" fill="white"/>
<path d="M40 15.5C40 14.9477 40.4477 14.5 41 14.5H55C55.5523 14.5 56 14.9477 56 15.5V18V23.5C56 24.0523 55.5523 24.5 55 24.5H41C40.4477 24.5 40 24.0523 40 23.5V18V15.5Z" fill="#4598D4" fill-opacity="0.4"/>
<path d="M25 74.5H71V81.5C71 82.0523 70.5523 82.5 70 82.5H26C25.4477 82.5 25 82.0523 25 81.5V74.5Z" fill="white"/>
<path d="M25 74.5H71V81.5C71 82.0523 70.5523 82.5 70 82.5H26C25.4477 82.5 25 82.0523 25 81.5V74.5Z" fill="#4598D4" fill-opacity="0.6"/>
<path d="M55 14.5H41C40.4477 14.5 40 14.9477 40 15.5V17C40 17.5523 40.4477 18 41 18H55C55.5523 18 56 17.5523 56 17V15.5C56 14.9477 55.5523 14.5 55 14.5Z" fill="white"/>
<path d="M55 14.5H41C40.4477 14.5 40 14.9477 40 15.5V17C40 17.5523 40.4477 18 41 18H55C55.5523 18 56 17.5523 56 17V15.5C56 14.9477 55.5523 14.5 55 14.5Z" fill="#4598D4" fill-opacity="0.8"/>
<path d="M34 16.7168C26.4409 20.4004 20.5491 26.9741 17.7625 34.9999M74 64.1588C77.7762 58.9062 80 52.4628 80 45.4999C80 38.8501 77.9717 32.6742 74.5 27.5568M71.7016 23.9999C68.8526 20.861 65.3886 18.2905 61.5 16.4785" stroke="white" stroke-linecap="round"/>
<path d="M34 16.7168C26.4409 20.4004 20.5491 26.9741 17.7625 34.9999M74 64.1588C77.7762 58.9062 80 52.4628 80 45.4999C80 38.8501 77.9717 32.6742 74.5 27.5568M71.7016 23.9999C68.8526 20.861 65.3886 18.2905 61.5 16.4785" stroke="#4598D4" stroke-opacity="0.6" stroke-linecap="round"/>
</svg>
