<svg width="96" height="96" viewBox="0 0 96 96" fill="none" xmlns="http://www.w3.org/2000/svg">
<path d="M18 74.8356C18 74.7811 18.0229 74.7291 18.063 74.6923C35.0012 59.1657 60.9988 59.1657 77.937 74.6923C77.9771 74.7291 78 74.7811 78 74.8356V85.0001C78 85.5524 77.5523 86.0001 77 86.0001H19C18.4477 86.0001 18 85.5524 18 85.0001V74.8356Z" fill="white"/>
<path d="M18 74.8356C18 74.7811 18.0229 74.7291 18.063 74.6923C35.0012 59.1657 60.9988 59.1657 77.937 74.6923C77.9771 74.7291 78 74.7811 78 74.8356V85.0001C78 85.5524 77.5523 86.0001 77 86.0001H19C18.4477 86.0001 18 85.5524 18 85.0001V74.8356Z" fill="#4598D4" fill-opacity="0.2"/>
<path d="M40 49.25H56V65.25C56 69.6683 52.4183 73.25 48 73.25C43.5817 73.25 40 69.6683 40 65.25V49.25Z" fill="white"/>
<path d="M40 49.25H56V65.25C56 69.6683 52.4183 73.25 48 73.25C43.5817 73.25 40 69.6683 40 65.25V49.25Z" fill="#4598D4" fill-opacity="0.4"/>
<path d="M30 19.25C30 14.8317 33.5817 11.25 38 11.25H58C62.4183 11.25 66 14.8317 66 19.25V44.25C66 45.9069 64.6569 47.25 63 47.25H33C31.3431 47.25 30 45.9069 30 44.25V19.25Z" fill="white"/>
<path d="M30 19.25C30 14.8317 33.5817 11.25 38 11.25H58C62.4183 11.25 66 14.8317 66 19.25V44.25C66 45.9069 64.6569 47.25 63 47.25H33C31.3431 47.25 30 45.9069 30 44.25V19.25Z" fill="#4598D4" fill-opacity="0.5"/>
<path d="M24 79.75H55.5M72 79.75H63" stroke="white" stroke-linecap="round"/>
<path d="M24 79.75H55.5M72 79.75H63" stroke="#4598D4" stroke-opacity="0.6" stroke-linecap="round"/>
<path d="M34 36.25C34 30.1749 38.9249 25.25 45 25.25H51C57.0751 25.25 62 30.1749 62 36.25V40.85C62 41.0709 62.1791 41.25 62.4 41.25C63.2837 41.25 64 41.9663 64 42.85V43.65C64 44.5337 63.2837 45.25 62.4 45.25C62.1791 45.25 62 45.4291 62 45.65V47.25C62 54.982 55.732 61.25 48 61.25C40.268 61.25 34 54.982 34 47.25V45.25C32.8954 45.25 32 44.3546 32 43.25V42.85C32 41.9663 32.7163 41.25 33.6 41.25C33.8209 41.25 34 41.0709 34 40.85V36.25Z" fill="white"/>
<path d="M34 36.25C34 30.1749 38.9249 25.25 45 25.25H51C57.0751 25.25 62 30.1749 62 36.25V40.85C62 41.0709 62.1791 41.25 62.4 41.25C63.2837 41.25 64 41.9663 64 42.85V43.65C64 44.5337 63.2837 45.25 62.4 45.25C62.1791 45.25 62 45.4291 62 45.65V47.25C62 54.982 55.732 61.25 48 61.25C40.268 61.25 34 54.982 34 47.25V45.25C32.8954 45.25 32 44.3546 32 43.25V42.85C32 41.9663 32.7163 41.25 33.6 41.25C33.8209 41.25 34 41.0709 34 40.85V36.25Z" fill="#4598D4" fill-opacity="0.1"/>
<path d="M42 44.25C43.1046 44.25 44 43.3546 44 42.25C44 41.1454 43.1046 40.25 42 40.25C40.8954 40.25 40 41.1454 40 42.25C40 43.3546 40.8954 44.25 42 44.25Z" fill="white"/>
<path d="M42 44.25C43.1046 44.25 44 43.3546 44 42.25C44 41.1454 43.1046 40.25 42 40.25C40.8954 40.25 40 41.1454 40 42.25C40 43.3546 40.8954 44.25 42 44.25Z" fill="#4598D4" fill-opacity="0.8"/>
<path d="M54 44.25C55.1046 44.25 56 43.3546 56 42.25C56 41.1454 55.1046 40.25 54 40.25C52.8954 40.25 52 41.1454 52 42.25C52 43.3546 52.8954 44.25 54 44.25Z" fill="white"/>
<path d="M54 44.25C55.1046 44.25 56 43.3546 56 42.25C56 41.1454 55.1046 40.25 54 40.25C52.8954 40.25 52 41.1454 52 42.25C52 43.3546 52.8954 44.25 54 44.25Z" fill="#4598D4" fill-opacity="0.8"/>
<path d="M30 18C30 13.5817 33.5817 10 38 10H58C62.4183 10 66 13.5817 66 18V31.25H30V18Z" fill="white"/>
<path d="M30 18C30 13.5817 33.5817 10 38 10H58C62.4183 10 66 13.5817 66 18V31.25H30V18Z" fill="#4598D4" fill-opacity="0.2"/>
<path d="M48 38.25C51.866 38.25 55 35.116 55 31.25C55 27.384 51.866 24.25 48 24.25C44.134 24.25 41 27.384 41 31.25C41 35.116 44.134 38.25 48 38.25Z" fill="white"/>
<path d="M48 33.25C49.1046 33.25 50 32.3546 50 31.25C50 30.1454 49.1046 29.25 48 29.25C46.8954 29.25 46 30.1454 46 31.25C46 32.3546 46.8954 33.25 48 33.25Z" fill="white"/>
<path d="M48 33.25C49.1046 33.25 50 32.3546 50 31.25C50 30.1454 49.1046 29.25 48 29.25C46.8954 29.25 46 30.1454 46 31.25C46 32.3546 46.8954 33.25 48 33.25Z" fill="#4598D4" fill-opacity="0.4"/>
</svg>
