<svg width="14" height="19" viewBox="0 0 14 19" fill="none" xmlns="http://www.w3.org/2000/svg">
<path d="M6.98558 0.75C5.1655 0.75215 3.42059 1.47717 2.1336 2.76602C0.846611 4.05486 0.122638 5.8023 0.120491 7.625C0.118311 9.11452 0.604155 10.5636 1.50349 11.75C1.50349 11.75 1.69072 11.9969 1.72131 12.0325L6.98558 18.25L12.2524 12.0294C12.2798 11.9963 12.4677 11.75 12.4677 11.75L12.4683 11.7481C13.3672 10.5623 13.8528 9.11383 13.8507 7.625C13.8485 5.8023 13.1245 4.05486 11.8376 2.76602C10.5506 1.47717 8.80566 0.75215 6.98558 0.75ZM6.98558 10.125C6.49184 10.125 6.00919 9.97838 5.59866 9.70367C5.18813 9.42897 4.86816 9.03852 4.67921 8.58171C4.49026 8.12489 4.44083 7.62223 4.53715 7.13727C4.63348 6.65232 4.87123 6.20686 5.22036 5.85723C5.56949 5.5076 6.0143 5.2695 6.49856 5.17304C6.98281 5.07657 7.48475 5.12608 7.94091 5.3153C8.39707 5.50452 8.78695 5.82495 9.06126 6.23607C9.33557 6.6472 9.48198 7.13055 9.48198 7.625C9.48115 8.28779 9.21787 8.92319 8.74989 9.39185C8.2819 9.86052 7.64741 10.1242 6.98558 10.125Z" fill="white"/>
</svg>
