<svg width="112" height="64" viewBox="0 0 112 64" fill="none" xmlns="http://www.w3.org/2000/svg">
<path d="M94.8552 20.6499C95.2952 20.6499 95.6752 20.8199 95.9952 21.1599C96.3152 21.4799 96.4752 21.8699 96.4752 22.3299V38.5299C96.4752 38.9499 96.3452 39.3099 96.0852 39.6099C95.8452 39.8899 95.5552 40.0299 95.2152 40.0299C94.8752 40.0299 94.5752 39.8899 94.3152 39.6099C94.0752 39.3299 93.9552 38.9099 93.9552 38.3499V37.7199C92.8152 39.3599 91.1652 40.1799 89.0052 40.1799C87.8052 40.1799 86.6852 39.8599 85.6452 39.2199C84.6052 38.5599 83.7652 37.6799 83.1252 36.5799C82.5052 35.4799 82.1952 34.2899 82.1952 33.0099C82.1952 31.7099 82.5152 30.5199 83.1552 29.4399C83.7952 28.3399 84.6552 27.4699 85.7352 26.8299C86.8352 26.1899 88.0352 25.8699 89.3352 25.8699C90.8352 25.8699 92.1352 26.3999 93.2352 27.4599V22.3299C93.2352 21.8499 93.3852 21.4499 93.6852 21.1299C93.9852 20.8099 94.3752 20.6499 94.8552 20.6499ZM89.3352 37.0899C90.0752 37.0899 90.7552 36.9099 91.3752 36.5499C91.9952 36.1699 92.4852 35.6699 92.8452 35.0499C93.2252 34.4299 93.4152 33.7499 93.4152 33.0099C93.4152 32.2699 93.2252 31.5899 92.8452 30.9699C92.4852 30.3499 91.9952 29.8599 91.3752 29.4999C90.7552 29.1199 90.0752 28.9299 89.3352 28.9299C88.5952 28.9299 87.9152 29.1199 87.2952 29.4999C86.6752 29.8599 86.1852 30.3499 85.8252 30.9699C85.4652 31.5899 85.2852 32.2699 85.2852 33.0099C85.2852 33.7499 85.4652 34.4299 85.8252 35.0499C86.1852 35.6699 86.6752 36.1699 87.2952 36.5499C87.9152 36.9099 88.5952 37.0899 89.3352 37.0899Z" fill="#252525"/>
<path d="M79.27 32.3801C79.27 33.6401 78.8 34.2701 77.86 34.2701H68.95C69.19 35.1901 69.66 35.9301 70.36 36.4901C71.08 37.0301 71.9 37.3001 72.82 37.3001C73.38 37.3001 73.89 37.2301 74.35 37.0901C74.81 36.9301 75.26 36.6801 75.7 36.3401C76.08 36.1001 76.45 35.9801 76.81 35.9801C77.25 35.9801 77.59 36.1601 77.83 36.5201C77.99 36.7401 78.07 36.9901 78.07 37.2701C78.07 37.7501 77.87 38.1601 77.47 38.5001C76.29 39.6401 74.67 40.2101 72.61 40.2101C71.27 40.2101 70.07 39.8901 69.01 39.2501C67.95 38.6101 67.12 37.7401 66.52 36.6401C65.92 35.5401 65.62 34.3301 65.62 33.0101C65.62 31.6901 65.92 30.4901 66.52 29.4101C67.12 28.3101 67.95 27.4501 69.01 26.8301C70.09 26.1901 71.31 25.8701 72.67 25.8701C73.95 25.8701 75.09 26.1701 76.09 26.7701C77.09 27.3701 77.87 28.1701 78.43 29.1701C78.99 30.1701 79.27 31.2401 79.27 32.3801ZM76.39 31.8101C76.35 30.9301 75.97 30.2001 75.25 29.6201C74.55 29.0401 73.73 28.7501 72.79 28.7501C71.85 28.7501 71.02 29.0301 70.3 29.5901C69.6 30.1501 69.14 30.8901 68.92 31.8101H76.39Z" fill="#252525"/>
<path d="M45.67 40C45.23 40 44.85 39.84 44.53 39.52C44.21 39.2 44.05 38.82 44.05 38.38V22.39C44.05 21.91 44.2 21.52 44.5 21.22C44.82 20.92 45.2 20.77 45.64 20.77C46.12 20.77 46.52 20.94 46.84 21.28L53.35 29.02L59.8 21.25C60.16 20.95 60.5501 20.8 60.9701 20.8C61.43 20.8 61.81 20.96 62.1101 21.28C62.43 21.58 62.59 21.95 62.59 22.39V38.38C62.59 38.82 62.43 39.2 62.1101 39.52C61.81 39.84 61.43 40 60.9701 40C60.5301 40 60.15 39.84 59.83 39.52C59.51 39.2 59.3501 38.82 59.3501 38.38V26.53L54.4001 32.59C54.0801 32.91 53.73 33.07 53.35 33.07C52.95 33.07 52.59 32.91 52.2701 32.59L47.32 26.53V38.38C47.32 38.82 47.16 39.2 46.84 39.52C46.52 39.84 46.13 40 45.67 40Z" fill="#252525"/>
<path d="M38.376 26.0199C38.716 26.0199 39.006 26.1699 39.246 26.4699C39.506 26.7499 39.6361 27.0999 39.6361 27.5199V38.4999C39.6361 38.9399 39.526 39.2999 39.306 39.5799C39.086 39.8599 38.776 39.9999 38.376 39.9999C37.516 39.9999 37.0861 39.4999 37.0861 38.4999V37.6899C35.9261 39.3499 34.2761 40.1799 32.1361 40.1799C30.9561 40.1799 29.836 39.8699 28.776 39.2499C27.736 38.6099 26.8961 37.7499 26.2561 36.6699C25.6361 35.5699 25.326 34.3499 25.326 33.0099C25.326 31.6699 25.6361 30.4599 26.2561 29.3799C26.8961 28.2799 27.736 27.4199 28.776 26.7999C29.836 26.1799 30.9561 25.8699 32.1361 25.8699C34.2961 25.8699 35.9461 26.6999 37.0861 28.3599V27.6699C37.0861 27.1099 37.2161 26.6999 37.4761 26.4399C37.7361 26.1599 38.036 26.0199 38.376 26.0199ZM32.496 37.0899C33.236 37.0899 33.916 36.9099 34.536 36.5499C35.156 36.1899 35.646 35.6999 36.0061 35.0799C36.3661 34.4599 36.5461 33.7699 36.5461 33.0099C36.5461 32.2499 36.3661 31.5599 36.0061 30.9399C35.646 30.3199 35.156 29.8299 34.536 29.4699C33.916 29.1099 33.236 28.9299 32.496 28.9299C31.756 28.9299 31.076 29.1199 30.456 29.4999C29.836 29.8599 29.336 30.3499 28.956 30.9699C28.596 31.5899 28.416 32.2699 28.416 33.0099C28.416 33.7499 28.596 34.4299 28.956 35.0499C29.336 35.6699 29.836 36.1699 30.456 36.5499C31.076 36.9099 31.756 37.0899 32.496 37.0899Z" fill="#252525"/>
<path d="M20.7256 40C20.2656 40 19.8756 39.84 19.5556 39.52C19.2356 39.2 19.0756 38.81 19.0756 38.35V27.64C19.0756 27.2 19.2356 26.82 19.5556 26.5C19.8956 26.18 20.2956 26.02 20.7556 26.02C21.1956 26.02 21.5656 26.18 21.8656 26.5C22.1856 26.8 22.3456 27.18 22.3456 27.64V38.35C22.3456 38.81 22.1856 39.2 21.8656 39.52C21.5656 39.84 21.1856 40 20.7256 40Z" fill="#252525"/>
<path d="M7.11997 20.7998C8.85997 20.7998 10.47 21.2398 11.95 22.1198C13.45 22.9798 14.64 24.1498 15.52 25.6298C16.4 27.1098 16.84 28.7098 16.84 30.4298C16.84 32.1498 16.4 33.7498 15.52 35.2298C14.64 36.6898 13.45 37.8498 11.95 38.7098C10.47 39.5698 8.85997 39.9998 7.11997 39.9998H1.83997C1.39997 39.9998 1.01997 39.8398 0.699971 39.5198C0.379971 39.1998 0.219971 38.8198 0.219971 38.3798V22.3898C0.219971 21.9498 0.369971 21.5798 0.669971 21.2798C0.989971 20.9598 1.37997 20.7998 1.83997 20.7998H7.11997ZM7.17997 36.9998C8.41997 36.9998 9.51997 36.7098 10.48 36.1298C11.46 35.5498 12.22 34.7598 12.76 33.7598C13.3 32.7398 13.57 31.6198 13.57 30.3998C13.57 29.1998 13.3 28.0998 12.76 27.0998C12.22 26.0798 11.46 25.2798 10.48 24.6998C9.51997 24.0998 8.41997 23.7998 7.17997 23.7998H3.48997V36.9998H7.17997Z" fill="#252525"/>
<path d="M18.8204 20.7946L20.4916 17.7865C20.6247 17.5469 20.9744 17.5624 21.0857 17.8129L22.516 21.0311C22.8267 21.7301 22.7217 22.5439 22.2439 23.1412C21.4817 24.094 20.0606 24.1727 19.1979 23.3099L19.1685 23.2806C18.5105 22.6226 18.3685 21.6081 18.8204 20.7946Z" fill="#E9474A"/>
<path d="M106 32C106 46.9117 93.9117 59 79 59C68.3988 59 59.2246 52.8903 54.8065 44H49.326C54.0731 55.7273 65.5705 64 79 64C96.6731 64 111 49.6731 111 32C111 14.3269 96.6731 0 79 0C66.3475 0 55.4101 7.34306 50.2169 18H55.9086C60.644 10.2062 69.214 5 79 5C93.9117 5 106 17.0883 106 32Z" fill="#4598D4"/>
</svg>
