<svg width="18" height="15" viewBox="0 0 18 15" fill="none" xmlns="http://www.w3.org/2000/svg">
<path d="M17.3333 3.77905V11.6666C17.3333 12.3042 17.0897 12.9178 16.6522 13.3818C16.2148 13.8457 15.6165 14.125 14.98 14.1624L14.8333 14.1666H3.16663C2.52895 14.1666 1.91536 13.9229 1.45141 13.4855C0.987454 13.048 0.708203 12.4498 0.670793 11.8132L0.666626 11.6666V3.77905L8.53746 9.02655L8.63413 9.08155C8.74805 9.13721 8.87317 9.16615 8.99996 9.16615C9.12675 9.16615 9.25187 9.13721 9.36579 9.08155L9.46246 9.02655L17.3333 3.77905Z" fill="white"/>
<path d="M14.8333 0.833252C15.7333 0.833252 16.5225 1.30825 16.9625 2.02242L8.99998 7.33075L1.03748 2.02242C1.24647 1.6831 1.53355 1.39867 1.87479 1.19283C2.21602 0.986984 2.60152 0.8657 2.99914 0.839085L3.16664 0.833252H14.8333Z" fill="white"/>
</svg>
