<svg width="96" height="96" viewBox="0 0 96 96" fill="none" xmlns="http://www.w3.org/2000/svg">
<path d="M27 86.0001H37C37.5523 86.0001 38 85.5524 38 85.0001V83.4194C38 82.7861 38.5812 82.313 39.2052 82.4209C41.4007 82.8007 43.6731 83.0001 46 83.0001C49.3754 83.0001 52.636 82.5806 55.7139 81.7993C56.36 81.6353 57 82.1153 57 82.7819V85.0001C57 85.5524 57.4477 86.0001 58 86.0001H68C68.5523 86.0001 69 85.5524 69 85.0001V75.8447C69 75.5374 69.1419 75.248 69.3809 75.0548C72.9695 72.1546 75.8173 68.594 77.6566 64.6012C77.8237 64.2385 78.1832 64.0001 78.5826 64.0001H85C85.5523 64.0001 86 63.5524 86 63.0001V45.0001C86 44.4478 85.5523 44.0001 85 44.0001H78.5826C78.1832 44.0001 77.8237 43.7618 77.6566 43.399C76.5933 41.0908 75.193 38.927 73.5074 36.9518C73.1608 36.5456 73.1736 35.9392 73.5512 35.5616L82.9447 26.1681C83.2482 25.8646 83.1095 25.3464 82.695 25.2352C76.1176 23.4706 69.1253 24.1249 62.9895 27.0792L61.5878 27.7541C61.5188 27.7873 61.453 27.8287 61.3941 27.8777C60.6535 28.4956 60.3064 29.0559 60.1436 29.4454C60.0062 29.7745 59.8101 30.1101 59.5017 30.289L59.1379 30.5C59.1379 31.0523 58.6901 31.5001 58.1379 31.5001H33.3623C33.0861 31.5001 32.8622 31.2762 32.8622 31C22.5 32 14.777 38.8757 12.6107 48.5C12.2099 50.2808 12 52.1196 12 54.0001C12 63.4609 17.3115 71.8636 25.5297 77.1571C25.8204 77.3443 26 77.6649 26 78.0106V85.0001C26 85.5524 26.4477 86.0001 27 86.0001Z" fill="white"/>
<path d="M27 86.0001H37C37.5523 86.0001 38 85.5524 38 85.0001V83.4194C38 82.7861 38.5812 82.313 39.2052 82.4209C41.4007 82.8007 43.6731 83.0001 46 83.0001C49.3754 83.0001 52.636 82.5806 55.7139 81.7993C56.36 81.6353 57 82.1153 57 82.7819V85.0001C57 85.5524 57.4477 86.0001 58 86.0001H68C68.5523 86.0001 69 85.5524 69 85.0001V75.8447C69 75.5374 69.1419 75.248 69.3809 75.0548C72.9695 72.1546 75.8173 68.594 77.6566 64.6012C77.8237 64.2385 78.1832 64.0001 78.5826 64.0001H85C85.5523 64.0001 86 63.5524 86 63.0001V45.0001C86 44.4478 85.5523 44.0001 85 44.0001H78.5826C78.1832 44.0001 77.8237 43.7618 77.6566 43.399C76.5933 41.0908 75.193 38.927 73.5074 36.9518C73.1608 36.5456 73.1736 35.9392 73.5512 35.5616L82.9447 26.1681C83.2482 25.8646 83.1095 25.3464 82.695 25.2352C76.1176 23.4706 69.1253 24.1249 62.9895 27.0792L61.5878 27.7541C61.5188 27.7873 61.453 27.8287 61.3941 27.8777C60.6535 28.4956 60.3064 29.0559 60.1436 29.4454C60.0062 29.7745 59.8101 30.1101 59.5017 30.289L59.1379 30.5C59.1379 31.0523 58.6901 31.5001 58.1379 31.5001H33.3623C33.0861 31.5001 32.8622 31.2762 32.8622 31C22.5 32 14.777 38.8757 12.6107 48.5C12.2099 50.2808 12 52.1196 12 54.0001C12 63.4609 17.3115 71.8636 25.5297 77.1571C25.8204 77.3443 26 77.6649 26 78.0106V85.0001C26 85.5524 26.4477 86.0001 27 86.0001Z" fill="#4598D4" fill-opacity="0.2"/>
<path d="M76.4546 27L70 33.272" stroke="white" stroke-linecap="round"/>
<path d="M76.4546 27L70 33.272" stroke="#4598D4" stroke-opacity="0.4" stroke-linecap="round"/>
<path d="M46 10C37.7157 10 31 16.7157 31 25C31 27.6273 31.6754 30.0967 32.8621 32.2443V35.5C32.8621 36.0523 33.3099 36.5 33.8621 36.5H58.1379C58.6901 36.5 59.1379 36.0523 59.1379 35.5V32.2443C60.3246 30.0967 61 27.6273 61 25C61 16.7157 54.2843 10 46 10Z" fill="white"/>
<path d="M46 10C37.7157 10 31 16.7157 31 25C31 27.6273 31.6754 30.0967 32.8621 32.2443V35.5C32.8621 36.0523 33.3099 36.5 33.8621 36.5H58.1379C58.6901 36.5 59.1379 36.0523 59.1379 35.5V32.2443C60.3246 30.0967 61 27.6273 61 25C61 16.7157 54.2843 10 46 10Z" fill="#4598D4" fill-opacity="0.5"/>
<path d="M12.6107 48.5C9.24047 47.6667 3.9 44.6 9.5 39" stroke="white" stroke-linecap="round"/>
<path d="M12.6107 48.5C9.24047 47.6667 3.9 44.6 9.5 39" stroke="#4598D4" stroke-opacity="0.4" stroke-linecap="round"/>
<path d="M86 63V45C86 44.4477 85.5523 44 85 44H79.5826C79.0304 44 78.5826 44.4477 78.5826 45V63C78.5826 63.5523 79.0304 64 79.5826 64H85C85.5523 64 86 63.5523 86 63Z" fill="white"/>
<path d="M86 63V45C86 44.4477 85.5523 44 85 44H79.5826C79.0304 44 78.5826 44.4477 78.5826 45V63C78.5826 63.5523 79.0304 64 79.5826 64H85C85.5523 64 86 63.5523 86 63Z" fill="#4598D4" fill-opacity="0.5"/>
<path d="M39.2052 82.4208C41.4007 82.8006 43.6731 83 46 83C49.3754 83 52.636 82.5805 55.7139 81.7992C56.36 81.6352 57 82.1152 57 82.7818V79C57 78.4477 56.5523 78 56 78H39C38.4477 78 38 78.4477 38 79V83.4193C38 82.786 38.5812 82.3128 39.2052 82.4208Z" fill="white"/>
<path d="M39.2052 82.4208C41.4007 82.8006 43.6731 83 46 83C49.3754 83 52.636 82.5805 55.7139 81.7992C56.36 81.6352 57 82.1152 57 82.7818V79C57 78.4477 56.5523 78 56 78H39C38.4477 78 38 78.4477 38 79V83.4193C38 82.786 38.5812 82.3128 39.2052 82.4208Z" fill="#4598D4" fill-opacity="0.6"/>
<path d="M65 46C66.1046 46 67 45.1046 67 44C67 42.8954 66.1046 42 65 42C63.8954 42 63 42.8954 63 44C63 45.1046 63.8954 46 65 46Z" fill="white"/>
<path d="M65 46C66.1046 46 67 45.1046 67 44C67 42.8954 66.1046 42 65 42C63.8954 42 63 42.8954 63 44C63 45.1046 63.8954 46 65 46Z" fill="#4598D4" fill-opacity="0.8"/>
<path d="M29.41 71.7771C30.9179 70.5676 29.7592 66.6185 26.822 62.9565C23.8848 59.2945 20.2814 57.3063 18.7735 58.5157C17.2656 59.7251 18.4243 63.6742 21.3615 67.3363C24.2987 70.9983 27.9021 72.9865 29.41 71.7771Z" fill="white"/>
<path d="M29.41 71.7771C30.9179 70.5676 29.7592 66.6185 26.822 62.9565C23.8848 59.2945 20.2814 57.3063 18.7735 58.5157C17.2656 59.7251 18.4243 63.6742 21.3615 67.3363C24.2987 70.9983 27.9021 72.9865 29.41 71.7771Z" fill="#4598D4" fill-opacity="0.1"/>
<path d="M70 42C71.1046 42 72 41.1046 72 40C72 38.8954 71.1046 38 70 38C68.8954 38 68 38.8954 68 40C68 41.1046 68.8954 42 70 42Z" fill="white"/>
<path d="M70 42C71.1046 42 72 41.1046 72 40C72 38.8954 71.1046 38 70 38C68.8954 38 68 38.8954 68 40C68 41.1046 68.8954 42 70 42Z" fill="#4598D4" fill-opacity="0.8"/>
<path d="M86 60C84.8954 60 84 59.1046 84 58C84 56.8954 84.8954 56 86 56V60Z" fill="white"/>
<path d="M86 60C84.8954 60 84 59.1046 84 58C84 56.8954 84.8954 56 86 56V60Z" fill="#4598D4" fill-opacity="0.2"/>
<path d="M46 35C51.5228 35 56 30.5228 56 25C56 19.4772 51.5228 15 46 15C40.4772 15 36 19.4772 36 25C36 30.5228 40.4772 35 46 35Z" fill="white"/>
<path d="M43.4971 18.9304C43.3962 18.9304 43.3003 18.9718 43.2303 19.0442C43.1604 19.1164 43.1218 19.2134 43.1218 19.3139V25.6504H41.4947C41.3938 25.6504 41.298 25.6918 41.2279 25.7641C41.158 25.8363 41.1194 25.9334 41.1194 26.0338C41.1194 26.1343 41.158 26.2314 41.2279 26.3036C41.298 26.3759 41.3938 26.4173 41.4947 26.4173H43.1218V27.7181H41.4947C41.3938 27.7181 41.298 27.7595 41.2279 27.8318C41.158 27.904 41.1194 28.0011 41.1194 28.1015C41.1194 28.2019 41.158 28.299 41.2279 28.3712C41.298 28.4436 41.3938 28.485 41.4947 28.485H43.1218V30.6861C43.1218 30.7865 43.1604 30.8836 43.2303 30.9558C43.3003 31.0282 43.3962 31.0696 43.4971 31.0696C43.5979 31.0696 43.6938 31.0282 43.7639 30.9558C43.8338 30.8836 43.8724 30.7865 43.8724 30.6861V28.485H47.0012C47.1021 28.485 47.198 28.4436 47.268 28.3712C47.3379 28.299 47.3765 28.2019 47.3765 28.1015C47.3765 28.0011 47.3379 27.904 47.268 27.8318C47.198 27.7595 47.1021 27.7181 47.0012 27.7181H43.8724V26.4173H47.2515C48.2154 26.4173 49.1389 26.0219 49.8192 25.3194C50.4993 24.6171 50.8807 23.6654 50.8807 22.6739C50.8807 21.6823 50.4993 20.7306 49.8192 20.0283C49.1389 19.3258 48.2154 18.9304 47.2515 18.9304H43.4971ZM47.2515 25.6504H43.8724V19.6973H47.2515C48.0137 19.6973 48.7454 20.0099 49.2856 20.5677C49.8259 21.1256 50.1301 21.8832 50.1301 22.6739C50.1301 23.4646 49.8259 24.2221 49.2856 24.78C48.7454 25.3378 48.0137 25.6504 47.2515 25.6504Z" fill="white"/>
<path d="M43.4971 18.9304C43.3962 18.9304 43.3003 18.9718 43.2303 19.0442C43.1604 19.1164 43.1218 19.2134 43.1218 19.3139V25.6504H41.4947C41.3938 25.6504 41.298 25.6918 41.2279 25.7641C41.158 25.8363 41.1194 25.9334 41.1194 26.0338C41.1194 26.1343 41.158 26.2314 41.2279 26.3036C41.298 26.3759 41.3938 26.4173 41.4947 26.4173H43.1218V27.7181H41.4947C41.3938 27.7181 41.298 27.7595 41.2279 27.8318C41.158 27.904 41.1194 28.0011 41.1194 28.1015C41.1194 28.2019 41.158 28.299 41.2279 28.3712C41.298 28.4436 41.3938 28.485 41.4947 28.485H43.1218V30.6861C43.1218 30.7865 43.1604 30.8836 43.2303 30.9558C43.3003 31.0282 43.3962 31.0696 43.4971 31.0696C43.5979 31.0696 43.6938 31.0282 43.7639 30.9558C43.8338 30.8836 43.8724 30.7865 43.8724 30.6861V28.485H47.0012C47.1021 28.485 47.198 28.4436 47.268 28.3712C47.3379 28.299 47.3765 28.2019 47.3765 28.1015C47.3765 28.0011 47.3379 27.904 47.268 27.8318C47.198 27.7595 47.1021 27.7181 47.0012 27.7181H43.8724V26.4173H47.2515C48.2154 26.4173 49.1389 26.0219 49.8192 25.3194C50.4993 24.6171 50.8807 23.6654 50.8807 22.6739C50.8807 21.6823 50.4993 20.7306 49.8192 20.0283C49.1389 19.3258 48.2154 18.9304 47.2515 18.9304H43.4971ZM47.2515 25.6504H43.8724V19.6973H47.2515C48.0137 19.6973 48.7454 20.0099 49.2856 20.5677C49.8259 21.1256 50.1301 21.8832 50.1301 22.6739C50.1301 23.4646 49.8259 24.2221 49.2856 24.78C48.7454 25.3378 48.0137 25.6504 47.2515 25.6504Z" fill="#4598D4" fill-opacity="0.8"/>
<path d="M43.4971 18.9304C43.3962 18.9304 43.3003 18.9718 43.2303 19.0442C43.1604 19.1164 43.1218 19.2134 43.1218 19.3139V25.6504H41.4947C41.3938 25.6504 41.298 25.6918 41.2279 25.7641C41.158 25.8363 41.1194 25.9334 41.1194 26.0338C41.1194 26.1343 41.158 26.2314 41.2279 26.3036C41.298 26.3759 41.3938 26.4173 41.4947 26.4173H43.1218V27.7181H41.4947C41.3938 27.7181 41.298 27.7595 41.2279 27.8318C41.158 27.904 41.1194 28.0011 41.1194 28.1015C41.1194 28.2019 41.158 28.299 41.2279 28.3712C41.298 28.4436 41.3938 28.485 41.4947 28.485H43.1218V30.6861C43.1218 30.7865 43.1604 30.8836 43.2303 30.9558C43.3003 31.0282 43.3962 31.0696 43.4971 31.0696C43.5979 31.0696 43.6938 31.0282 43.7639 30.9558C43.8338 30.8836 43.8724 30.7865 43.8724 30.6861V28.485H47.0012C47.1021 28.485 47.198 28.4436 47.268 28.3712C47.3379 28.299 47.3765 28.2019 47.3765 28.1015C47.3765 28.0011 47.3379 27.904 47.268 27.8318C47.198 27.7595 47.1021 27.7181 47.0012 27.7181H43.8724V26.4173H47.2515C48.2154 26.4173 49.1389 26.0219 49.8192 25.3194C50.4993 24.6171 50.8807 23.6654 50.8807 22.6739C50.8807 21.6823 50.4993 20.7306 49.8192 20.0283C49.1389 19.3258 48.2154 18.9304 47.2515 18.9304H43.4971ZM47.2515 25.6504H43.8724V19.6973H47.2515C48.0137 19.6973 48.7454 20.0099 49.2856 20.5677C49.8259 21.1256 50.1301 21.8832 50.1301 22.6739C50.1301 23.4646 49.8259 24.2221 49.2856 24.78C48.7454 25.3378 48.0137 25.6504 47.2515 25.6504Z" stroke="white" stroke-width="0.25"/>
<path d="M43.4971 18.9304C43.3962 18.9304 43.3003 18.9718 43.2303 19.0442C43.1604 19.1164 43.1218 19.2134 43.1218 19.3139V25.6504H41.4947C41.3938 25.6504 41.298 25.6918 41.2279 25.7641C41.158 25.8363 41.1194 25.9334 41.1194 26.0338C41.1194 26.1343 41.158 26.2314 41.2279 26.3036C41.298 26.3759 41.3938 26.4173 41.4947 26.4173H43.1218V27.7181H41.4947C41.3938 27.7181 41.298 27.7595 41.2279 27.8318C41.158 27.904 41.1194 28.0011 41.1194 28.1015C41.1194 28.2019 41.158 28.299 41.2279 28.3712C41.298 28.4436 41.3938 28.485 41.4947 28.485H43.1218V30.6861C43.1218 30.7865 43.1604 30.8836 43.2303 30.9558C43.3003 31.0282 43.3962 31.0696 43.4971 31.0696C43.5979 31.0696 43.6938 31.0282 43.7639 30.9558C43.8338 30.8836 43.8724 30.7865 43.8724 30.6861V28.485H47.0012C47.1021 28.485 47.198 28.4436 47.268 28.3712C47.3379 28.299 47.3765 28.2019 47.3765 28.1015C47.3765 28.0011 47.3379 27.904 47.268 27.8318C47.198 27.7595 47.1021 27.7181 47.0012 27.7181H43.8724V26.4173H47.2515C48.2154 26.4173 49.1389 26.0219 49.8192 25.3194C50.4993 24.6171 50.8807 23.6654 50.8807 22.6739C50.8807 21.6823 50.4993 20.7306 49.8192 20.0283C49.1389 19.3258 48.2154 18.9304 47.2515 18.9304H43.4971ZM47.2515 25.6504H43.8724V19.6973H47.2515C48.0137 19.6973 48.7454 20.0099 49.2856 20.5677C49.8259 21.1256 50.1301 21.8832 50.1301 22.6739C50.1301 23.4646 49.8259 24.2221 49.2856 24.78C48.7454 25.3378 48.0137 25.6504 47.2515 25.6504Z" stroke="#4598D4" stroke-opacity="0.8" stroke-width="0.25"/>
<path d="M32.8622 36.5001V32.2444H59.1379V36.5001C59.1379 37.0524 58.6902 37.5001 58.1379 37.5001H33.8622C33.3099 37.5001 32.8622 37.0524 32.8622 36.5001Z" fill="white"/>
<path d="M32.8622 36.5001V32.2444H59.1379V36.5001C59.1379 37.0524 58.6902 37.5001 58.1379 37.5001H33.8622C33.3099 37.5001 32.8622 37.0524 32.8622 36.5001Z" fill="#4598D4" fill-opacity="0.4"/>
</svg>
