<svg width="17" height="16" viewBox="0 0 17 16" fill="none" xmlns="http://www.w3.org/2000/svg">
<path fill-rule="evenodd" clip-rule="evenodd" d="M2.77744 1.20258C3.79161 0.194251 5.46161 0.373418 6.31077 1.50842L7.36244 2.91175C8.05411 3.83508 7.99244 5.12508 7.17161 5.94092L6.97327 6.13925C6.95088 6.22252 6.9486 6.30992 6.96661 6.39425C7.01911 6.73425 7.30327 7.45425 8.49327 8.63758C9.68328 9.82092 10.4083 10.1042 10.7533 10.1576C10.8401 10.1761 10.9301 10.1735 11.0158 10.1501L11.3558 9.81175C12.0858 9.08675 13.2058 8.95092 14.1091 9.44175L15.7008 10.3084C17.0649 11.0484 17.4091 12.9018 16.2924 14.0126L15.1083 15.1893C14.7349 15.5601 14.2333 15.8693 13.6216 15.9268C12.1133 16.0676 8.59911 15.8876 4.90494 12.2151C1.45744 8.78675 0.795774 5.79675 0.711608 4.32342C0.669941 3.57842 1.02161 2.94842 1.46994 2.50342L2.77744 1.20258ZM5.31077 2.25758C4.88827 1.69342 4.10161 1.64842 3.65827 2.08925L2.34994 3.38925C2.07494 3.66258 1.94327 3.96425 1.95994 4.25258C2.02661 5.42342 2.55994 8.12092 5.78661 11.3293C9.17161 14.6943 12.2974 14.7951 13.5058 14.6818C13.7524 14.6593 13.9974 14.5309 14.2266 14.3034L15.4099 13.1259C15.8916 12.6476 15.7858 11.7759 15.1041 11.4059L13.5124 10.5401C13.0724 10.3018 12.5574 10.3801 12.2374 10.6984L11.8583 11.0759L11.4166 10.6326C11.8583 11.0759 11.8566 11.0768 11.8566 11.0768L11.8558 11.0784L11.8533 11.0809L11.8474 11.0859L11.8349 11.0976C11.7995 11.1299 11.7616 11.1595 11.7216 11.1859C11.6549 11.2301 11.5666 11.2793 11.4558 11.3201C11.2308 11.4043 10.9324 11.4493 10.5641 11.3926C9.84161 11.2818 8.88411 10.7893 7.61161 9.52425C6.33994 8.25925 5.84327 7.30758 5.73161 6.58592C5.67411 6.21758 5.71994 5.91925 5.80494 5.69425C5.85208 5.56781 5.91902 5.44966 6.00327 5.34425L6.02994 5.31508L6.04161 5.30258L6.04661 5.29758L6.04911 5.29508L6.05078 5.29342L6.29078 5.05508C6.64744 4.69925 6.69744 4.11008 6.36161 3.66092L5.31077 2.25758Z" fill="white"/>
<path d="M5.31077 2.25758C4.88827 1.69342 4.10161 1.64842 3.65827 2.08925L2.34994 3.38925C2.07494 3.66258 1.94327 3.96425 1.95994 4.25258C2.02661 5.42342 2.55994 8.12092 5.78661 11.3293C9.17161 14.6943 12.2974 14.7951 13.5058 14.6818C13.7524 14.6593 13.9974 14.5309 14.2266 14.3034L15.4099 13.1259C15.8916 12.6476 15.7858 11.7759 15.1041 11.4059L13.5124 10.5401C13.0724 10.3018 12.5574 10.3801 12.2374 10.6984L11.8583 11.0759L11.4166 10.6326C11.8583 11.0759 11.8566 11.0768 11.8566 11.0768L11.8558 11.0784L11.8533 11.0809L11.8474 11.0859L11.8349 11.0976C11.7995 11.1299 11.7616 11.1595 11.7216 11.1859C11.6549 11.2301 11.5666 11.2793 11.4558 11.3201C11.2308 11.4043 10.9324 11.4493 10.5641 11.3926C9.84161 11.2818 8.88411 10.7893 7.61161 9.52425C6.33994 8.25925 5.84327 7.30758 5.73161 6.58592C5.67411 6.21758 5.71994 5.91925 5.80494 5.69425C5.85208 5.56781 5.91902 5.44966 6.00327 5.34425L6.02994 5.31508L6.04161 5.30258L6.04661 5.29758L6.04911 5.29508L6.05078 5.29342L6.29078 5.05508C6.64744 4.69925 6.69744 4.11008 6.36161 3.66092L5.31077 2.25758Z" fill="white"/>
</svg>
