<svg width="96" height="96" viewBox="0 0 96 96" fill="none" xmlns="http://www.w3.org/2000/svg">
<path d="M24.9914 68.0212C21.4393 65.0283 20.9859 59.7226 23.9788 56.1705C25.7247 54.0983 28.2578 53.0807 30.7706 53.1866H44.9142C45.116 53.1866 45.308 53.0996 45.4411 52.9477L46.365 51.8939C46.4417 51.8065 46.5388 51.7395 46.6478 51.699L51.5283 49.8844C51.5357 49.8817 51.5428 49.8781 51.5493 49.8737L64.2431 41.4112C67.1603 39.4664 71.0827 40.093 73.2488 42.8499C73.2584 42.8622 73.2569 42.8798 73.2452 42.8901L54.8923 59.1654C54.7641 59.2791 54.5987 59.3419 54.4273 59.3419H39.5096C39.042 59.3419 38.7058 59.7924 38.7843 60.2535C39.1831 62.5981 38.5123 65.0264 36.8421 67.0087C33.8493 70.5607 28.5435 71.014 24.9914 68.0212Z" fill="white"/>
<path d="M24.9914 68.0212C21.4393 65.0283 20.9859 59.7226 23.9788 56.1705C25.7247 54.0983 28.2578 53.0807 30.7706 53.1866H44.9142C45.116 53.1866 45.308 53.0996 45.4411 52.9477L46.365 51.8939C46.4417 51.8065 46.5388 51.7395 46.6478 51.699L51.5283 49.8844C51.5357 49.8817 51.5428 49.8781 51.5493 49.8737L64.2431 41.4112C67.1603 39.4664 71.0827 40.093 73.2488 42.8499C73.2584 42.8622 73.2569 42.8798 73.2452 42.8901L54.8923 59.1654C54.7641 59.2791 54.5987 59.3419 54.4273 59.3419H39.5096C39.042 59.3419 38.7058 59.7924 38.7843 60.2535C39.1831 62.5981 38.5123 65.0264 36.8421 67.0087C33.8493 70.5607 28.5435 71.014 24.9914 68.0212Z" fill="#4598D4" fill-opacity="0.4"/>
<path d="M68.5533 43.3748L66.1463 45.4608M56.9193 53.4571L64.1404 47.1991" stroke="white" stroke-linecap="round"/>
<path d="M68.5533 43.3748L66.1463 45.4608M56.9193 53.4571L64.1404 47.1991" stroke="#4598D4" stroke-opacity="0.1" stroke-linecap="round"/>
<path d="M36.1207 25C31.4757 25 27.7104 28.7654 27.7104 33.4103C27.7104 36.1199 28.9918 38.5302 30.9817 40.0684L40.8471 47.64C40.9638 47.7296 41.0494 47.8536 41.0917 47.9946L42.0226 51.0979C42.0588 51.2185 42.1268 51.3271 42.2194 51.4123L50.8087 59.3145C50.8279 59.3321 50.8531 59.3419 50.8792 59.3419H67.3253C70.6612 59.3419 73.4189 56.7416 73.6148 53.4115C73.6157 53.3965 73.6045 53.3836 73.5897 53.3823L53.9221 51.6721C53.7747 51.6593 53.6352 51.6001 53.5235 51.5032L41.4568 41.0302C41.1068 40.7264 41.1436 40.1723 41.4997 39.8757C43.3519 38.3329 44.5309 36.0093 44.5309 33.4103C44.5309 28.7654 40.7655 25 36.1207 25Z" fill="white"/>
<path d="M36.1207 25C31.4757 25 27.7104 28.7654 27.7104 33.4103C27.7104 36.1199 28.9918 38.5302 30.9817 40.0684L40.8471 47.64C40.9638 47.7296 41.0494 47.8536 41.0917 47.9946L42.0226 51.0979C42.0588 51.2185 42.1268 51.3271 42.2194 51.4123L50.8087 59.3145C50.8279 59.3321 50.8531 59.3419 50.8792 59.3419H67.3253C70.6612 59.3419 73.4189 56.7416 73.6148 53.4115C73.6157 53.3965 73.6045 53.3836 73.5897 53.3823L53.9221 51.6721C53.7747 51.6593 53.6352 51.6001 53.5235 51.5032L41.4568 41.0302C41.1068 40.7264 41.1436 40.1723 41.4997 39.8757C43.3519 38.3329 44.5309 36.0093 44.5309 33.4103C44.5309 28.7654 40.7655 25 36.1207 25Z" fill="#4598D4" fill-opacity="0.3"/>
<path d="M32.6684 58.9097C34.1485 60.1567 34.3374 62.3675 33.0903 63.8475C31.8433 65.3276 29.6326 65.5165 28.1525 64.2694C26.6725 63.0224 26.4836 60.8117 27.7306 59.3316C28.9776 57.8516 31.1884 57.6627 32.6684 58.9097Z" fill="white"/>
<path d="M53.642 56.5385C54.4162 56.5385 55.0437 55.911 55.0437 55.1368C55.0437 54.3627 54.4162 53.7351 53.642 53.7351C52.8679 53.7351 52.2403 54.3627 52.2403 55.1368C52.2403 55.911 52.8679 56.5385 53.642 56.5385Z" fill="white"/>
<path d="M53.642 56.5385C54.4162 56.5385 55.0437 55.911 55.0437 55.1368C55.0437 54.3627 54.4162 53.7351 53.642 53.7351C52.8679 53.7351 52.2403 54.3627 52.2403 55.1368C52.2403 55.911 52.8679 56.5385 53.642 56.5385Z" fill="#4598D4" fill-opacity="0.8"/>
<path d="M36.1207 36.9146C38.056 36.9146 39.6249 35.3456 39.6249 33.4103C39.6249 31.4749 38.056 29.906 36.1207 29.906C34.1853 29.906 32.6164 31.4749 32.6164 33.4103C32.6164 35.3456 34.1853 36.9146 36.1207 36.9146Z" fill="white"/>
<mask id="mask0_112_3404" style="mask-type:alpha" maskUnits="userSpaceOnUse" x="10" y="10" width="76" height="76">
<circle cx="48" cy="48" r="38" fill="white"/>
<circle cx="48" cy="48" r="38" fill="#4598D4" fill-opacity="0.2"/>
</mask>
<g mask="url(#mask0_112_3404)">
<rect x="-18" y="-14" width="6" height="181" transform="rotate(-45 -18 -14)" fill="white"/>
<rect x="-18" y="-14" width="6" height="181" transform="rotate(-45 -18 -14)" fill="#4598D4" fill-opacity="0.2"/>
</g>
<circle cx="48" cy="48" r="35" stroke="white" stroke-width="6"/>
<circle cx="48" cy="48" r="35" stroke="#4598D4" stroke-opacity="0.2" stroke-width="6"/>
</svg>
